<?xml version="1.0" encoding="utf-8"?>
<!-- Generator: Adobe Illustrator 24.1.0, SVG Export Plug-In . SVG Version: 6.00 Build 0)  -->
<svg version="1.1" id="Calque_1" xmlns="http://www.w3.org/2000/svg" xmlns:xlink="http://www.w3.org/1999/xlink" x="0px" y="0px"
	 viewBox="0 0 566.93 169.75" style="enable-background:new 0 0 566.93 169.75;" xml:space="preserve">
<style type="text/css">
	.st0{fill:#FFFFFF;}
	.st1{fill:#79CDF4;}
	.st2{fill:#E30613;}
</style>
<g>
	<g>
		<path class="st0" d="M317.45,98.28c-7.14,0-12.14-7.19-12.14-19.73c0-12.54,5.35-19.73,12.14-19.73s12.14,7.19,12.14,19.73
			C329.6,91.1,324.59,98.28,317.45,98.28 M317.45,55.58c-14.37,0-22.77,9.92-22.77,22.97c0,10.52,5.56,22.97,22.77,22.97
			c17.2,0,22.77-12.45,22.77-22.97C340.22,65.5,331.82,55.58,317.45,55.58"/>
		<path class="st0" d="M235.31,59.93H218c-1.31,0-2.22,0.41-2.22,2.02v14.27h16.09v3.24h-16.09v14.67c0,2.03,1.21,3.04,3.44,3.04
			h17.3v3.24h-22.87c-4.35,0-6.98-2.03-6.98-7.69V65.7c0-4.35,0.6-9,7.89-9h20.74V59.93z"/>
		<path class="st0" d="M422.57,59.93h-17.3c-1.32,0-2.23,0.41-2.23,2.02v14.27h16.09v3.24h-16.09v14.67c0,2.03,1.22,3.04,3.44,3.04
			h17.3v3.24h-22.87c-4.35,0-6.99-2.03-6.99-7.69V65.7c0-4.35,0.61-9,7.9-9h20.74V59.93z"/>
		<path class="st0" d="M193.63,28.16v66.94c0,1.2,0.52,2.07,2.04,2.07h5.34v3.24h-10.42c-5.16,0-6.07-2.73-6.07-5.97V28.16H193.63z"
			/>
		<path class="st0" d="M356.36,97.17h5.97c9.61,0,13.96-8.7,13.96-17.71c0-9.41-4.15-19.53-15.58-19.53h-4.35V97.17z M347.25,28.16
			h9.1V56.7h7.99c12.15,0,22.56,7.18,22.56,22.46c0,7.59-4.55,21.25-21.05,21.25h-18.62V28.16z"/>
		<path class="st0" d="M430.95,100.41V56.7h14.92c9.23,0,17.36,2.02,17.36,12.04c0,5.83-2.98,10.12-8.83,11.46l11.26,20.21h-10.52
			L444.2,78.55c6.28,0,9.92-3.18,9.92-9.81c0-4.25-2.13-8.81-9.72-8.81h-4.35v40.47H430.95z"/>
		<polygon class="st0" points="466.18,56.7 466.18,59.93 476.03,59.93 476.03,100.41 485.13,100.41 485.13,59.93 494.98,59.93
			494.98,56.7 		"/>
		<path class="st0" d="M276.78,69.44l16.88,30.97h-12.39l-17.31-33.83c5.92,0.2,10.17-0.97,12.78-3.59c2.3-2.31,4-5.67,4-10.25
			c0-6.11-4.01-13.4-15.49-13.4h-5.88v61.08H248.6V35.06h21.26c13.61,0,21.79,6.61,21.79,17.8
			C291.65,60.46,288.05,67.84,276.78,69.44"/>
	</g>
	<g>
		<path class="st1" d="M206.9,126.34c0,2.52-0.33,4.67-0.99,6.46c-0.66,1.79-1.6,3.25-2.83,4.38c-1.23,1.13-2.73,1.96-4.49,2.49
			c-1.76,0.53-3.86,0.8-6.29,0.8h-6.56c-0.47,0-0.86-0.14-1.18-0.41c-0.32-0.28-0.48-0.73-0.48-1.35v-23.95
			c0-0.62,0.16-1.07,0.48-1.35c0.32-0.28,0.71-0.41,1.18-0.41h7.05c2.45,0,4.53,0.29,6.23,0.86c1.71,0.57,3.14,1.42,4.31,2.55
			c1.17,1.12,2.06,2.52,2.66,4.17C206.6,122.24,206.9,124.16,206.9,126.34z M201.13,126.53c0-1.3-0.15-2.51-0.46-3.63
			c-0.3-1.12-0.79-2.09-1.47-2.91c-0.67-0.82-1.54-1.46-2.59-1.92c-1.05-0.46-2.44-0.69-4.15-0.69h-2.82v18.68h2.91
			c1.53,0,2.82-0.2,3.86-0.59c1.05-0.4,1.92-0.99,2.62-1.79c0.7-0.8,1.22-1.79,1.57-2.98C200.95,129.5,201.13,128.12,201.13,126.53z
			"/>
		<path class="st1" d="M221.44,139.71c0,0.14-0.05,0.27-0.14,0.38c-0.09,0.11-0.24,0.21-0.46,0.28c-0.21,0.07-0.5,0.13-0.85,0.17
			c-0.35,0.04-0.81,0.06-1.36,0.06c-0.54,0-0.99-0.02-1.35-0.06c-0.36-0.04-0.65-0.1-0.86-0.17c-0.21-0.07-0.36-0.16-0.46-0.28
			c-0.09-0.11-0.14-0.24-0.14-0.38v-25.94c0-0.14,0.05-0.27,0.14-0.38c0.09-0.11,0.25-0.2,0.47-0.28c0.22-0.07,0.51-0.13,0.86-0.17
			c0.35-0.04,0.8-0.06,1.34-0.06c0.55,0,1,0.02,1.36,0.06c0.35,0.04,0.64,0.1,0.85,0.17c0.21,0.07,0.36,0.16,0.46,0.28
			c0.09,0.11,0.14,0.24,0.14,0.38V139.71z"/>
		<path class="st1" d="M250.77,136.32c0,0.35-0.01,0.65-0.03,0.9c-0.02,0.25-0.05,0.46-0.1,0.64c-0.04,0.18-0.1,0.33-0.17,0.46
			c-0.07,0.13-0.18,0.27-0.34,0.44c-0.16,0.16-0.46,0.37-0.9,0.63c-0.45,0.25-0.99,0.5-1.63,0.73c-0.64,0.23-1.38,0.43-2.21,0.58
			c-0.83,0.16-1.72,0.23-2.69,0.23c-1.88,0-3.58-0.29-5.09-0.87c-1.51-0.58-2.8-1.45-3.86-2.6c-1.06-1.15-1.88-2.59-2.44-4.32
			c-0.57-1.73-0.85-3.74-0.85-6.03c0-2.34,0.31-4.41,0.93-6.22c0.62-1.81,1.49-3.33,2.61-4.56c1.12-1.23,2.46-2.17,4.02-2.8
			c1.56-0.64,3.29-0.96,5.17-0.96c0.76,0,1.5,0.06,2.21,0.19c0.71,0.13,1.36,0.29,1.96,0.5c0.6,0.21,1.14,0.44,1.62,0.71
			c0.48,0.27,0.82,0.5,1.01,0.69c0.19,0.19,0.32,0.35,0.39,0.48c0.07,0.13,0.13,0.29,0.17,0.49c0.04,0.2,0.07,0.43,0.1,0.7
			c0.02,0.27,0.03,0.6,0.03,1c0,0.42-0.01,0.79-0.04,1.08c-0.03,0.3-0.08,0.54-0.15,0.72c-0.07,0.18-0.16,0.32-0.25,0.4
			c-0.1,0.08-0.21,0.13-0.34,0.13c-0.21,0-0.48-0.12-0.81-0.37c-0.33-0.25-0.75-0.52-1.26-0.83c-0.52-0.3-1.13-0.58-1.85-0.83
			c-0.71-0.25-1.57-0.37-2.56-0.37c-1.09,0-2.06,0.22-2.92,0.67c-0.86,0.45-1.59,1.08-2.19,1.91c-0.6,0.83-1.06,1.83-1.37,3
			c-0.31,1.18-0.47,2.5-0.47,3.97c0,1.61,0.17,3.01,0.5,4.19c0.33,1.18,0.81,2.16,1.42,2.92c0.62,0.76,1.36,1.33,2.23,1.71
			c0.87,0.38,1.85,0.56,2.94,0.56c0.99,0,1.85-0.12,2.57-0.35c0.72-0.23,1.34-0.49,1.86-0.77c0.52-0.28,0.94-0.54,1.27-0.76
			c0.33-0.23,0.59-0.34,0.78-0.34c0.14,0,0.25,0.03,0.34,0.08c0.08,0.06,0.16,0.17,0.21,0.34c0.06,0.17,0.1,0.41,0.13,0.71
			C250.76,135.4,250.77,135.81,250.77,136.32z"/>
		<path class="st1" d="M283.53,126.43c0,2.28-0.28,4.32-0.85,6.11c-0.57,1.8-1.41,3.32-2.53,4.57c-1.12,1.25-2.5,2.21-4.15,2.87
			c-1.65,0.66-3.56,0.99-5.72,0.99c-2.14,0-4-0.28-5.59-0.84c-1.59-0.56-2.92-1.41-3.98-2.56c-1.06-1.15-1.86-2.6-2.39-4.37
			c-0.53-1.77-0.8-3.86-0.8-6.28c0-2.22,0.28-4.22,0.85-6c0.57-1.78,1.41-3.29,2.53-4.53c1.12-1.24,2.5-2.2,4.15-2.87
			c1.65-0.66,3.56-1,5.74-1c2.08,0,3.92,0.28,5.51,0.83c1.59,0.55,2.92,1.4,3.99,2.55c1.07,1.15,1.88,2.59,2.42,4.34
			C283.25,121.99,283.53,124.05,283.53,126.43z M277.67,126.72c0-1.44-0.11-2.76-0.34-3.94c-0.23-1.18-0.61-2.19-1.16-3.04
			c-0.55-0.84-1.27-1.49-2.18-1.95c-0.91-0.46-2.04-0.69-3.4-0.69c-1.37,0-2.52,0.26-3.44,0.77c-0.92,0.52-1.66,1.21-2.23,2.07
			c-0.57,0.86-0.97,1.87-1.2,3.02c-0.23,1.15-0.35,2.37-0.35,3.66c0,1.5,0.11,2.85,0.34,4.04c0.23,1.2,0.61,2.22,1.15,3.07
			c0.54,0.85,1.26,1.5,2.17,1.94c0.91,0.45,2.04,0.67,3.42,0.67c1.37,0,2.52-0.25,3.44-0.76c0.92-0.51,1.66-1.2,2.23-2.08
			c0.57-0.88,0.97-1.9,1.2-3.07C277.55,129.28,277.67,128.04,277.67,126.72z"/>
		<path class="st1" d="M320.79,138.29c0,0.41-0.02,0.75-0.05,1.03c-0.03,0.28-0.09,0.5-0.16,0.67c-0.07,0.17-0.16,0.29-0.27,0.37
			c-0.11,0.08-0.22,0.12-0.35,0.12h-13.8c-0.47,0-0.86-0.14-1.18-0.41c-0.32-0.28-0.48-0.73-0.48-1.35v-23.95
			c0-0.62,0.16-1.07,0.48-1.35c0.32-0.28,0.71-0.41,1.18-0.41h13.71c0.13,0,0.24,0.04,0.34,0.11c0.1,0.07,0.18,0.19,0.25,0.37
			c0.07,0.18,0.12,0.4,0.16,0.68c0.03,0.28,0.05,0.63,0.05,1.05c0,0.4-0.02,0.73-0.05,1.01c-0.04,0.28-0.09,0.5-0.16,0.67
			c-0.07,0.17-0.16,0.29-0.25,0.37c-0.1,0.08-0.21,0.12-0.34,0.12h-9.81v6.71h8.3c0.13,0,0.24,0.04,0.35,0.12
			c0.11,0.08,0.19,0.2,0.27,0.36c0.07,0.16,0.12,0.38,0.16,0.66c0.03,0.28,0.05,0.61,0.05,1.01c0,0.41-0.02,0.75-0.05,1.02
			c-0.04,0.27-0.09,0.48-0.16,0.65c-0.07,0.16-0.16,0.28-0.27,0.35c-0.11,0.07-0.22,0.11-0.35,0.11h-8.3v7.75h9.89
			c0.13,0,0.24,0.04,0.35,0.12c0.11,0.08,0.19,0.2,0.27,0.37c0.07,0.17,0.12,0.39,0.16,0.67
			C320.77,137.54,320.79,137.88,320.79,138.29z"/>
		<path class="st1" d="M352.71,138.53c0,0.33-0.06,0.62-0.17,0.87c-0.11,0.25-0.27,0.47-0.46,0.64c-0.19,0.17-0.42,0.29-0.68,0.37
			c-0.26,0.08-0.53,0.12-0.8,0.12h-2.38c-0.5,0-0.92-0.05-1.28-0.15c-0.36-0.1-0.69-0.28-1-0.54c-0.3-0.26-0.6-0.61-0.88-1.06
			c-0.28-0.45-0.6-1.02-0.96-1.73l-6.84-12.84c-0.4-0.76-0.8-1.59-1.21-2.47c-0.41-0.88-0.78-1.74-1.1-2.58h-0.04
			c0.06,1.02,0.1,2.03,0.13,3.05c0.03,1.01,0.04,2.06,0.04,3.13v14.37c0,0.14-0.04,0.27-0.12,0.38c-0.08,0.11-0.21,0.21-0.4,0.29
			c-0.19,0.08-0.45,0.14-0.77,0.18c-0.33,0.04-0.74,0.06-1.25,0.06c-0.5,0-0.91-0.02-1.23-0.06c-0.33-0.04-0.58-0.1-0.76-0.18
			c-0.18-0.08-0.31-0.17-0.38-0.29c-0.07-0.11-0.11-0.24-0.11-0.38V115c0-0.66,0.19-1.16,0.58-1.5c0.39-0.33,0.87-0.5,1.43-0.5h2.99
			c0.54,0,0.99,0.05,1.36,0.14c0.37,0.09,0.7,0.24,0.99,0.46c0.29,0.21,0.56,0.51,0.82,0.88c0.25,0.38,0.52,0.84,0.79,1.39
			l5.35,10.04c0.31,0.61,0.62,1.21,0.92,1.79c0.3,0.59,0.6,1.17,0.88,1.76c0.28,0.59,0.56,1.16,0.83,1.73
			c0.27,0.57,0.53,1.13,0.79,1.7h0.02c-0.04-0.99-0.07-2.02-0.1-3.1c-0.02-1.08-0.03-2.1-0.03-3.08v-12.89
			c0-0.14,0.04-0.27,0.13-0.38c0.08-0.11,0.23-0.21,0.42-0.3c0.2-0.08,0.46-0.15,0.79-0.18c0.33-0.04,0.74-0.05,1.25-0.05
			c0.48,0,0.88,0.02,1.21,0.05c0.33,0.03,0.58,0.1,0.75,0.18c0.18,0.08,0.3,0.18,0.37,0.3c0.07,0.11,0.11,0.24,0.11,0.38V138.53z"/>
		<path class="st1" d="M390.08,138.14c0,0.42-0.02,0.78-0.05,1.07c-0.03,0.29-0.09,0.53-0.16,0.72c-0.07,0.19-0.16,0.33-0.27,0.41
			c-0.11,0.08-0.23,0.13-0.37,0.13h-12.59c-0.47,0-0.86-0.14-1.18-0.41c-0.32-0.28-0.48-0.73-0.48-1.35v-24.94
			c0-0.14,0.05-0.27,0.14-0.38c0.09-0.11,0.24-0.2,0.46-0.28c0.21-0.07,0.5-0.13,0.86-0.17c0.36-0.04,0.81-0.06,1.35-0.06
			c0.55,0,1,0.02,1.36,0.06c0.35,0.04,0.64,0.1,0.85,0.17c0.21,0.07,0.36,0.16,0.46,0.28c0.09,0.11,0.14,0.24,0.14,0.38v22.1h8.64
			c0.14,0,0.27,0.04,0.37,0.12c0.11,0.08,0.19,0.2,0.27,0.38c0.07,0.18,0.12,0.41,0.16,0.7
			C390.06,137.36,390.08,137.72,390.08,138.14z"/>
		<path class="st1" d="M403.33,139.71c0,0.14-0.05,0.27-0.14,0.38c-0.09,0.11-0.24,0.21-0.46,0.28c-0.21,0.07-0.5,0.13-0.85,0.17
			c-0.35,0.04-0.81,0.06-1.36,0.06c-0.54,0-0.99-0.02-1.35-0.06c-0.36-0.04-0.65-0.1-0.86-0.17c-0.21-0.07-0.36-0.16-0.46-0.28
			c-0.09-0.11-0.14-0.24-0.14-0.38v-25.94c0-0.14,0.05-0.27,0.14-0.38c0.09-0.11,0.25-0.2,0.47-0.28c0.22-0.07,0.51-0.13,0.86-0.17
			c0.35-0.04,0.8-0.06,1.34-0.06c0.55,0,1,0.02,1.36,0.06c0.35,0.04,0.64,0.1,0.85,0.17c0.21,0.07,0.36,0.16,0.46,0.28
			c0.09,0.11,0.14,0.24,0.14,0.38V139.71z"/>
		<path class="st1" d="M435.69,117.28c0,0.41-0.02,0.76-0.05,1.06c-0.04,0.3-0.08,0.53-0.15,0.71c-0.06,0.18-0.14,0.3-0.23,0.37
			c-0.09,0.07-0.2,0.11-0.33,0.11c-0.18,0-0.48-0.13-0.89-0.38c-0.41-0.25-0.96-0.53-1.63-0.83c-0.68-0.3-1.49-0.57-2.43-0.83
			c-0.94-0.25-2.03-0.38-3.28-0.38c-1.33,0-2.53,0.23-3.61,0.69c-1.08,0.46-2,1.11-2.76,1.95c-0.76,0.84-1.35,1.85-1.76,3.04
			c-0.41,1.18-0.62,2.49-0.62,3.92c0,1.57,0.21,2.95,0.63,4.15c0.42,1.2,1,2.2,1.75,3c0.75,0.81,1.65,1.42,2.71,1.83
			c1.05,0.41,2.22,0.62,3.49,0.62c0.62,0,1.24-0.07,1.85-0.21c0.61-0.14,1.17-0.35,1.7-0.64v-6.37h-5.2c-0.25,0-0.45-0.16-0.59-0.48
			c-0.14-0.32-0.21-0.86-0.21-1.62c0-0.4,0.02-0.73,0.05-1c0.04-0.27,0.09-0.48,0.16-0.65c0.07-0.16,0.16-0.28,0.25-0.36
			c0.1-0.08,0.21-0.12,0.34-0.12h9.28c0.23,0,0.43,0.04,0.61,0.12c0.18,0.08,0.33,0.2,0.47,0.35c0.13,0.16,0.24,0.34,0.31,0.56
			c0.07,0.22,0.11,0.47,0.11,0.75v10.93c0,0.42-0.07,0.8-0.22,1.11c-0.15,0.32-0.45,0.57-0.91,0.75c-0.46,0.18-1.03,0.38-1.71,0.57
			c-0.68,0.2-1.38,0.37-2.11,0.51c-0.73,0.14-1.47,0.25-2.21,0.32c-0.74,0.07-1.49,0.11-2.24,0.11c-2.19,0-4.16-0.32-5.89-0.95
			c-1.73-0.63-3.2-1.54-4.4-2.74c-1.2-1.2-2.12-2.65-2.76-4.37c-0.64-1.72-0.96-3.67-0.96-5.85c0-2.25,0.34-4.27,1.02-6.06
			c0.68-1.79,1.64-3.31,2.89-4.56c1.24-1.25,2.75-2.21,4.51-2.88c1.76-0.66,3.73-1,5.89-1c1.19,0,2.27,0.08,3.25,0.24
			c0.98,0.16,1.83,0.36,2.56,0.59c0.73,0.23,1.33,0.49,1.81,0.75c0.48,0.27,0.82,0.5,1.01,0.7c0.19,0.2,0.33,0.48,0.41,0.84
			C435.65,116.03,435.69,116.57,435.69,117.28z"/>
		<path class="st1" d="M468.36,138.53c0,0.33-0.06,0.62-0.17,0.87c-0.11,0.25-0.27,0.47-0.46,0.64c-0.19,0.17-0.42,0.29-0.68,0.37
			c-0.26,0.08-0.53,0.12-0.8,0.12h-2.38c-0.5,0-0.92-0.05-1.28-0.15c-0.36-0.1-0.69-0.28-1-0.54c-0.3-0.26-0.6-0.61-0.88-1.06
			c-0.28-0.45-0.6-1.02-0.96-1.73l-6.84-12.84c-0.4-0.76-0.8-1.59-1.21-2.47c-0.41-0.88-0.78-1.74-1.1-2.58h-0.04
			c0.06,1.02,0.1,2.03,0.13,3.05c0.03,1.01,0.04,2.06,0.04,3.13v14.37c0,0.14-0.04,0.27-0.12,0.38c-0.08,0.11-0.21,0.21-0.4,0.29
			c-0.19,0.08-0.45,0.14-0.77,0.18c-0.33,0.04-0.74,0.06-1.25,0.06c-0.5,0-0.91-0.02-1.23-0.06c-0.33-0.04-0.58-0.1-0.76-0.18
			c-0.18-0.08-0.31-0.17-0.38-0.29c-0.07-0.11-0.11-0.24-0.11-0.38V115c0-0.66,0.19-1.16,0.58-1.5c0.39-0.33,0.87-0.5,1.43-0.5h2.99
			c0.54,0,0.99,0.05,1.36,0.14c0.37,0.09,0.7,0.24,0.99,0.46c0.29,0.21,0.56,0.51,0.82,0.88c0.25,0.38,0.52,0.84,0.79,1.39
			l5.35,10.04c0.31,0.61,0.62,1.21,0.92,1.79c0.3,0.59,0.6,1.17,0.88,1.76c0.28,0.59,0.56,1.16,0.83,1.73
			c0.27,0.57,0.53,1.13,0.79,1.7h0.02c-0.04-0.99-0.07-2.02-0.1-3.1c-0.02-1.08-0.03-2.1-0.03-3.08v-12.89
			c0-0.14,0.04-0.27,0.13-0.38c0.08-0.11,0.23-0.21,0.42-0.3c0.2-0.08,0.46-0.15,0.79-0.18c0.33-0.04,0.74-0.05,1.25-0.05
			c0.48,0,0.88,0.02,1.21,0.05c0.33,0.03,0.58,0.1,0.75,0.18c0.18,0.08,0.3,0.18,0.37,0.3c0.07,0.11,0.11,0.24,0.11,0.38V138.53z"/>
		<path class="st1" d="M494.98,138.29c0,0.41-0.02,0.75-0.05,1.03c-0.03,0.28-0.09,0.5-0.16,0.67c-0.07,0.17-0.16,0.29-0.27,0.37
			c-0.11,0.08-0.22,0.12-0.35,0.12h-13.8c-0.47,0-0.86-0.14-1.18-0.41c-0.32-0.28-0.48-0.73-0.48-1.35v-23.95
			c0-0.62,0.16-1.07,0.48-1.35c0.32-0.28,0.71-0.41,1.18-0.41h13.71c0.13,0,0.24,0.04,0.34,0.11c0.1,0.07,0.18,0.19,0.25,0.37
			c0.07,0.18,0.12,0.4,0.16,0.68c0.03,0.28,0.05,0.63,0.05,1.05c0,0.4-0.02,0.73-0.05,1.01c-0.04,0.28-0.09,0.5-0.16,0.67
			c-0.07,0.17-0.16,0.29-0.25,0.37c-0.1,0.08-0.21,0.12-0.34,0.12h-9.81v6.71h8.3c0.13,0,0.24,0.04,0.35,0.12
			c0.11,0.08,0.19,0.2,0.27,0.36c0.07,0.16,0.12,0.38,0.16,0.66c0.03,0.28,0.05,0.61,0.05,1.01c0,0.41-0.02,0.75-0.05,1.02
			c-0.04,0.27-0.09,0.48-0.16,0.65c-0.07,0.16-0.16,0.28-0.27,0.35c-0.11,0.07-0.22,0.11-0.35,0.11h-8.3v7.75h9.89
			c0.13,0,0.24,0.04,0.35,0.12c0.11,0.08,0.19,0.2,0.27,0.37c0.07,0.17,0.12,0.39,0.16,0.67
			C494.96,137.54,494.98,137.88,494.98,138.29z"/>
	</g>
</g>
<g>
	<ellipse class="st0" cx="83.87" cy="84.56" rx="69.65" ry="69.68"/>
	<path class="st2" d="M173.03,120.38c-0.05-0.19-0.16-0.35-0.29-0.49c-0.89-0.99-2.53-1.6-3.66-2.36c-1.19-0.81-2.34-1.67-3.45-2.59
		c-2.88-2.39-5.49-5.14-7.58-8.25c-2.69-3.99-4.46-8.58-4.8-13.4c-0.08-1.12,0.11-3.95,0.11-3.95c-0.01-0.01-0.01-0.02-0.02-0.03
		c0.11-1.57,0.18-3.15,0.18-4.74c0-38.48-31.19-69.67-69.67-69.67c-37.78,0-68.51,30.07-69.62,67.58c2.91-4.18,7.54-7.44,11.15-8.36
		c5.08-1.29,9.98,0.09,15.25,2.69c9.79,4.82,17.13,12.71,29.67,4.85c-1.49,6.54-8.58,12.41-13.63,13.7
		c-5.08,1.28-9.98-0.09-15.24-2.69c-9.13-4.49-16.13-11.65-27.2-6.22c0.99,37.62,31.77,67.82,69.63,67.82
		c17.49,0,33.45-6.46,45.69-17.09l0,0.02c0,0,0.07-0.07,0.18-0.17c1.22-1.07,2.42-2.17,3.56-3.33c0.26-0.24,0.52-0.48,0.8-0.73
		c3.84-3.49,9.53-7.98,16.13-8.88c4.82-0.66,9.65-1.17,14.49-1.58c1.62-0.14,3.25-0.27,4.87-0.38c1.03-0.07,2.25,0.04,3.08-0.69
		C172.93,121.16,173.12,120.76,173.03,120.38z M116.84,124.07L95.9,83.16c7.16,0.24,12.3-1.18,15.45-4.34
		c2.78-2.8,4.84-6.86,4.84-12.4c0-7.39-4.85-16.19-18.72-16.19h-7.11v73.84H77.34V45.06h25.7c16.46,0,26.35,7.99,26.35,21.53
		c0,9.18-4.35,18.11-17.98,20.04l19.86,36.43l-0.12,1.02H116.84z"/>
</g>
</svg>
